<svg id="Layer_1" data-name="Layer 1" xmlns="http://www.w3.org/2000/svg" viewBox="0 0 214.17 26.72"><defs><style>.cls-1{fill:#ff4337;}</style></defs><title>MyPortal_TitleOnly</title><path class="cls-1" d="M2.3,2.63H8.81l8.06,15.91,8-15.91h6.47V28.54H26.08V11L18.72,25.91H15L7.55,11V28.54H2.3Z" transform="translate(-2.3 -2.22)"/><path class="cls-1" d="M58.94,2.63,49.52,20.17v8.37H43.67V20.32L34.1,2.63H40l6.61,11.62L53.06,2.63Z" transform="translate(-2.3 -2.22)"/><path class="cls-1" d="M89,5a8.34,8.34,0,0,1,2.7,6.64,9,9,0,0,1-2.72,7q-2.72,2.49-7.63,2.49H76.17v7.41H70.33V2.63h11Q86.26,2.63,89,5ZM84.8,15.12a4.12,4.12,0,0,0,1.32-3.31A4,4,0,0,0,84.8,8.57,5.75,5.75,0,0,0,81,7.48H76.17v8.77H81A5.64,5.64,0,0,0,84.8,15.12Z" transform="translate(-2.3 -2.22)"/><path class="cls-1" d="M114.51,4a13,13,0,0,1,6.84,11.59,13.1,13.1,0,0,1-6.84,11.63,15,15,0,0,1-14.12,0,13,13,0,0,1-6.84-11.63A13,13,0,0,1,100.37,4a15.23,15.23,0,0,1,14.14,0Zm-11,4.46a8,8,0,0,0-2.92,3,8.2,8.2,0,0,0-1.07,4.15,8.17,8.17,0,0,0,1.09,4.18,8.32,8.32,0,0,0,2.92,3,7.63,7.63,0,0,0,7.91,0,8,8,0,0,0,2.85-3,8.56,8.56,0,0,0,1-4.2,8.39,8.39,0,0,0-1-4.15,8.08,8.08,0,0,0-2.85-3,7.43,7.43,0,0,0-3.94-1.09A7.68,7.68,0,0,0,103.53,8.42Z" transform="translate(-2.3 -2.22)"/><path class="cls-1" d="M141.09,28.54,137,21.13h-6v7.41h-5.85V2.63h11.24q5.07,0,7.84,2.35A8.22,8.22,0,0,1,147,11.62a10.09,10.09,0,0,1-1.23,5.13A8,8,0,0,1,142.2,20l5.51,8.55ZM131,16.25h5.39a5.63,5.63,0,0,0,3.76-1.13,4.14,4.14,0,0,0,1.31-3.31,4,4,0,0,0-1.31-3.24,5.73,5.73,0,0,0-3.76-1.09H131Z" transform="translate(-2.3 -2.22)"/><path class="cls-1" d="M149.41,2.63H171v5h-7.91v21h-5.85V7.59h-7.87Z" transform="translate(-2.3 -2.22)"/><path class="cls-1" d="M190.6,28.54l-2-5h-12l-2,5h-6L179.76,2.63h6l11.05,25.91ZM178.51,18.8h8.17L182.61,8.74Z" transform="translate(-2.3 -2.22)"/><path class="cls-1" d="M199.54,2.63h5.84v20.8h11.1v5.11H199.54Z" transform="translate(-2.3 -2.22)"/></svg>