<?xml version="1.0" encoding="UTF-8"?>
<svg width="102.33" height="49.186" version="1.1" viewBox="0 0 27.076 13.014" xmlns="http://www.w3.org/2000/svg">
<defs>
<clipPath id="d">
<path d="m0 0h612v792h-612z"/>
</clipPath>
<clipPath id="c">
<path d="m0 0h612v792h-612z"/>
</clipPath>
</defs>
<g transform="translate(36.84 -142.19)">
<g transform="translate(.13229 -.13229)">
<g transform="matrix(.35278 0 0 -.35278 -213.23 162.15)">
<g clip-path="url(#c)">
<g transform="translate(570.74 46.056)">
<path d="m0 0c0 4.102-1.5 7.524-3.462 9.766h5.701c1.869-2.279 3.026-6.156 3.026-9.766v-0.013c0-3.616-1.16-7.499-3.035-9.777h-5.701c1.966 2.242 3.471 5.668 3.471 9.777z" fill="#ef3427"/>
</g>
</g>
</g>
<g transform="matrix(.35278 0 0 -.35278 -34.986 142.46)">
<path d="m0 0h-5.255l7.212-19.559h2.793l1.231 3.339z" fill="#ef3427"/>
</g>
<g transform="matrix(.35278 0 0 -.35278 -30.013 142.46)">
<path d="m0 0h-5.255l7.212-19.559h2.793l1.231 3.339z" fill="#ef3427"/>
</g>
<g transform="matrix(.35278 0 0 -.35278 -15.852 155.21)">
<path d="m0 0v36.139h-5.028v-36.139z" fill="#ef3427"/>
</g>
<g transform="matrix(.35278 0 0 -.35278 -213.23 162.15)">
<g clip-path="url(#d)">
<g transform="translate(530.67 52.921)">
<path d="m0 0c0.082 1.002 0.263 1.989 0.679 2.901h4.599c-0.384-0.694-0.745-1.959-0.335-3.216 0.371-1.136 1.157-1.911 2.148-2.549 1.174-0.756 2.544-1.177 3.802-1.764 1.32-0.614 2.605-1.257 3.708-2.215 1.603-1.392 2.578-3.043 2.737-5.177 0.019-0.255 0.027-0.511 0.027-0.767 0-1.337-0.21-2.662-0.807-3.868h-4.722c0.464 0.79 0.83 1.867 0.763 2.861-0.165 2.464-3.174 3.811-5.694 4.932-0.384 0.171-0.761 0.339-1.122 0.507-1.108 0.518-2.195 1.113-3.14 1.898-0.976 0.811-1.718 1.623-2.173 2.814-0.4 1.045-0.546 2.178-0.493 3.292 6e-3 0.117 0.013 0.234 0.023 0.351" fill="#ef3427"/>
</g>
</g>
</g>
</g>
</g>
</svg>
